<svg width="50" height="50" viewBox="0 0 50 50" fill="none" xmlns="http://www.w3.org/2000/svg">
<path d="M0.118744 50L3.63333 37.1604C1.46458 33.4021 0.324994 29.1417 0.327077 24.7729C0.333327 11.1146 11.4479 0 25.1042 0C31.7312 0.00208333 37.9521 2.58333 42.6312 7.26667C47.3083 11.95 49.8833 18.175 49.8813 24.7958C49.875 38.4562 38.7604 49.5708 25.1042 49.5708C20.9583 49.5687 16.8729 48.5292 13.2542 46.5542L0.118744 50ZM13.8625 42.0687C17.3542 44.1417 20.6875 45.3833 25.0958 45.3854C36.4458 45.3854 45.6917 36.1479 45.6979 24.7917C45.7021 13.4125 36.5 4.1875 25.1125 4.18333C13.7542 4.18333 4.51458 13.4208 4.51041 24.775C4.50833 29.4104 5.86666 32.8812 8.14791 36.5125L6.06666 44.1125L13.8625 42.0687ZM37.5854 30.6854C37.4312 30.4271 37.0187 30.2729 36.3979 29.9625C35.7792 29.6521 32.7354 28.1542 32.1667 27.9479C31.6 27.7417 31.1875 27.6375 30.7729 28.2583C30.3604 28.8771 29.1729 30.2729 28.8125 30.6854C28.4521 31.0979 28.0896 31.15 27.4708 30.8396C26.8521 30.5292 24.8562 29.8771 22.4917 27.7667C20.6521 26.125 19.4083 24.0979 19.0479 23.4771C18.6875 22.8583 19.0104 22.5229 19.3187 22.2146C19.5979 21.9375 19.9375 21.4917 20.2479 21.1292C20.5625 20.7708 20.6646 20.5125 20.8729 20.0979C21.0792 19.6854 20.9771 19.3229 20.8208 19.0125C20.6646 18.7042 19.4271 15.6562 18.9125 14.4167C18.4083 13.2104 17.8979 13.3729 17.5187 13.3542L16.3312 13.3333C15.9187 13.3333 15.2479 13.4875 14.6812 14.1083C14.1146 14.7292 12.5146 16.225 12.5146 19.2729C12.5146 22.3208 14.7333 25.2646 15.0417 25.6771C15.3521 26.0896 19.4062 32.3438 25.6167 35.025C27.0937 35.6625 28.2479 36.0437 29.1458 36.3292C30.6292 36.8 31.9792 36.7333 33.0458 36.575C34.2354 36.3979 36.7083 35.0771 37.225 33.6312C37.7417 32.1833 37.7417 30.9437 37.5854 30.6854Z" fill="#EA892F"/>
</svg>
